<svg width="12" height="16" viewBox="0 0 12 16" version="1.1" xmlns="http://www.w3.org/2000/svg"
     xml:space="preserve"
     style="fill-rule:evenodd;clip-rule:evenodd;stroke-linejoin:round;stroke-miterlimit:2;">
    <g>
        <path d="M11.52,15.547L0.667,15.547C0.448,15.547 0.267,15.366 0.267,15.147L0.267,0.707C0.267,0.486 0.446,0.307 0.667,0.307L7.907,0.307C8.012,0.309 8.113,0.352 8.187,0.427L11.8,4C11.875,4.074 11.918,4.175 11.92,4.28L11.92,15.147C11.92,15.366 11.739,15.547 11.52,15.547ZM1.087,14.747L11.12,14.747L11.12,4.48L7.74,1.107L1.073,1.107L1.087,14.747Z"
              style="fill:rgb(55,127,234);fill-rule:nonzero;"/>
	    <path d="M11.52,4.713L7.907,4.713C7.688,4.713 7.507,4.532 7.507,4.313L7.507,0.707C7.507,0.488 7.688,0.307 7.907,0.307C8.126,0.307 8.307,0.488 8.307,0.707L8.307,3.913L11.52,3.913C11.739,3.913 11.92,4.094 11.92,4.313C11.92,4.532 11.739,4.713 11.52,4.713Z"
	          style="fill:rgb(55,127,234);fill-rule:nonzero;"/>
	    <g transform="matrix(13.3667,0,0,12.4296,2.48936,13.7513)">
            <path d="M0.311,-0.035C0.311,-0.025 0.308,-0.017 0.301,-0.011C0.294,-0.005 0.285,-0.002 0.272,-0.002C0.249,-0.002 0.237,-0.013 0.237,-0.035L0.237,-0.567C0.201,-0.52 0.169,-0.481 0.142,-0.45C0.14,-0.448 0.137,-0.446 0.133,-0.445C0.128,-0.444 0.124,-0.443 0.12,-0.443C0.109,-0.443 0.101,-0.446 0.095,-0.451C0.088,-0.456 0.085,-0.464 0.085,-0.473C0.085,-0.477 0.086,-0.482 0.089,-0.487C0.092,-0.492 0.095,-0.497 0.099,-0.502C0.123,-0.53 0.144,-0.556 0.162,-0.579C0.18,-0.602 0.192,-0.618 0.199,-0.627L0.218,-0.652C0.223,-0.659 0.229,-0.665 0.237,-0.668C0.245,-0.671 0.253,-0.673 0.261,-0.673C0.275,-0.673 0.287,-0.669 0.296,-0.662C0.305,-0.654 0.31,-0.643 0.31,-0.63L0.311,-0.035Z"
                  style="fill:rgb(55,127,234);fill-rule:nonzero;"/>
        </g>
    </g>
</svg>
