<svg xmlns="http://www.w3.org/2000/svg" width="16" height="16" viewBox="0 0 16 16">
	<path fill="#377FEA"
	      d="M2.168 15.352a.48.48 0 0 1-.448-.648L3.2 10.72A3.12 3.12 0 0 1 .232 7.68V3.496A3.136 3.136 0 0 1 3.432.44h9.128a3.136 3.136 0 0 1 3.2 3.056V7.68a3.136 3.136 0 0 1-3.2 3.056H8.168l-5.704 4.512a.48.48 0 0 1-.296.104zM3.44 1.4A2.176 2.176 0 0 0 1.2 3.496V7.68a2.176 2.176 0 0 0 2.24 2.096h.464a.48.48 0 0 1 .448.648l-1.152 3 4.48-3.552a.48.48 0 0 1 .296-.104h4.56a2.176 2.176 0 0 0 2.24-2.096V3.496a2.176 2.176 0 0 0-2.24-2.096H3.44z"/>
</svg>
