<svg xmlns="http://www.w3.org/2000/svg" width="16" height="16" viewBox="0 0 16 16">
	<g fill="#377FEA">
		<path d="M.516 15.556a.436.436 0 0 1-.421-.56l1.12-3.752a.444.444 0 0 1 .109-.182L11.382 1.004a2.45 2.45 0 0 1 1.73-.728 2.45 2.45 0 0 1 1.724.728 2.45 2.45 0 0 1 .728 1.723 2.458 2.458 0 0 1-.728 1.731L4.778 14.545a.436.436 0 0 1-.21.117l-3.957.887-.095.007zm1.506-3.92l-.873 2.91 3.106-.728 9.963-9.978c.31-.288.492-.69.502-1.113a1.564 1.564 0 0 0-.502-1.105 1.564 1.564 0 0 0-1.127-.502c-.424.01-.825.19-1.113.502L2.022 11.636z"/>
		<path d="M4.67 14.45a.436.436 0 0 1-.423-.34 3.302 3.302 0 0 0-2.516-2.474.437.437 0 1 1 .196-.85 4.167 4.167 0 0 1 3.164 3.127.436.436 0 0 1-.327.523l-.095.015zM13.527 5.6a.422.422 0 0 1-.436-.29v-.06a3.295 3.295 0 0 0-2.502-2.486.437.437 0 0 1 .196-.851 4.167 4.167 0 0 1 3.164 3.149.444.444 0 0 1-.305.523l-.117.015zM4.756 8.59a.436.436 0 0 1-.305-.125L.298 4.422a.436.436 0 0 1 0-.618L3.636.487a.436.436 0 0 1 .619 0L8.37 4.538a.437.437 0 1 1-.611.626L3.92 1.41 1.23 4.109 5.09 7.84a.436.436 0 0 1-.305.727l-.029.022zM12.058 15.695a.436.436 0 0 1-.305-.124l-4.364-4.226A.437.437 0 1 1 8 10.72l4.03 3.92 2.406-2.4-3.81-3.913a.437.437 0 1 1 .625-.61l4.109 4.218a.436.436 0 0 1 0 .61l-2.996 3.026a.436.436 0 0 1-.306.124z"/>
		<path d="M4.756 4.785a.436.436 0 0 1-.305-.727l1.2-1.222a.437.437 0 1 1 .618.619l-1.178 1.2a.436.436 0 0 1-.335.13zM11.804 12.015a.436.436 0 0 1-.306-.728l1.207-1.207a.437.437 0 0 1 .619.618l-1.208 1.207a.436.436 0 0 1-.312.11z"/>
	</g>
</svg>
