<svg xmlns="http://www.w3.org/2000/svg" width="16" height="14"
     viewBox="0 0 22 20">
	<g fill="#377FEA" fill-rule="evenodd" transform="translate(-12 -13)">
		<circle cx="1.803" cy="1.051" r="1" transform="translate(21.197 22.356)"/>
		<path d="M32.736 32.165H13.264a.618.618 0 0 1-.619-.619v-14.61a.618.618 0 0 1 .619-.618h19.472a.618.618 0 0 1 .619.619v14.61a.618.618 0 0 1-.619.618zm-18.854-1.237h18.236V17.534H13.882v13.394z"/>
		<path d="M25.432 17.555a.618.618 0 0 1-.619-.618 1.813 1.813 0 0 0-3.626 0 .618.618 0 0 1-1.237 0 3.09 3.09 0 1 1 6.1 0 .618.618 0 0 1-.618.618zM32.736 26.477H13.264a.618.618 0 1 1 0-1.236h19.472a.618.618 0 1 1 0 1.236z"/>
	</g>
</svg>
