<svg xmlns="http://www.w3.org/2000/svg" width="16" height="18" viewBox="0 0 16 18">
	<path fill="#377FEA" fill-rule="nonzero"
	      d="M15.2 17.597h-4.91c-.331 0-.6-.23-.6-.514V10.55H6.56v6.532c0 .284-.269.514-.6.514H.8c-.331 0-.6-.23-.6-.514V6.797a.482.482 0 0 1 .18-.36L7.58.25a.697.697 0 0 1 .85 0l7.2 6.188c.11.096.17.226.17.36v10.286a.48.48 0 0 1-.176.364.654.654 0 0 1-.424.15zm-4.31-1.028h3.71v-9.6L8 1.294 1.4 6.97v9.6h4v-6.532c0-.284.269-.514.6-.514h4.33c.331 0 .6.23.6.514l-.04 6.532z"/>
</svg>
