<svg xmlns="http://www.w3.org/2000/svg" width="16" height="11" viewBox="0 0 16 11">
	<g fill="#377FEA" fill-rule="nonzero">
		<path d="M15.164 10.91H.669a.436.436 0 0 1-.436-.437V.793c0-.241.195-.437.436-.437h14.495a.436.436 0 0 1 .436.437v9.665a.436.436 0 0 1-.436.451zm-14.059-.888h13.622V1.229H1.105v8.793z"/>
		<path d="M7.898 6.065a5.884 5.884 0 0 1-2.713-1.192A49.52 49.52 0 0 1 .378 1.12.438.438 0 0 1 .96.465a49.687 49.687 0 0 0 4.705 3.68c.654.521 1.422.88 2.24 1.048.233 0 .837-.153 2.299-1.113A53.724 53.724 0 0 0 14.873.444a.436.436 0 0 1 .574.654 53.593 53.593 0 0 1-4.763 3.687c-1.288.851-2.182 1.251-2.764 1.259l-.022.021z"/>
		<path d="M1.04 10.764a.436.436 0 0 1-.35-.728l4.255-5.585a.448.448 0 0 1 .728.524l-4.284 5.614a.436.436 0 0 1-.349.175zM15.01 10.662a.436.436 0 0 1-.34-.16L10.304 5.04a.437.437 0 0 1 .684-.545l4.364 5.461a.436.436 0 0 1-.342.728v-.022z"/>
	</g>
</svg>
