<svg xmlns="http://www.w3.org/2000/svg" width="16" height="16" viewBox="0 0 16 16">
	<g fill="#377FEA" fill-rule="nonzero">
		<path d="M15.36 9.752H.64a.447.447 0 0 1-.436-.457V.915C.204.661.399.456.64.456h14.72c.241 0 .436.205.436.457v8.381a.447.447 0 0 1-.436.457zM1.076 8.838h13.819V1.333H1.076v7.505z"/>
		<path d="M14.356 13.143a.413.413 0 0 1-.196-.046c-.036 0-4.044-2.057-13.52-2.057a.447.447 0 0 1-.436-.457c0-.253.195-.457.436-.457 7.68 0 11.804 1.287 13.28 1.874V9.547c0-.253.195-.457.436-.457s.437.204.437.457v3.139a.447.447 0 0 1-.437.457z"/>
		<path d="M13.353 15.771a.425.425 0 0 1-.291-.114c-.037 0-3.738-3.39-12.422-3.39a.433.433 0 0 1-.378-.229.476.476 0 0 1 0-.457.433.433 0 0 1 .378-.229c6.938 0 10.785 2.042 12.276 3.048v-2.126c0-.252.196-.457.437-.457.24 0 .436.205.436.457v3.048a.447.447 0 0 1-.436.457v-.008zM.778 3.238a.447.447 0 0 1-.436-.457c0-.253.195-.457.436-.457.287-.018.56-.14.771-.343.219-.274.353-.612.386-.968a.45.45 0 0 1 .472-.419.45.45 0 0 1 .4.488 2.714 2.714 0 0 1-.64 1.524 2.043 2.043 0 0 1-1.389.632zM2.407 9.63a.447.447 0 0 1-.436-.449 1.349 1.349 0 0 0-.335-.8 1.652 1.652 0 0 0-.909-.427.43.43 0 0 1-.298-.16.472.472 0 0 1-.102-.335.443.443 0 0 1 .466-.419c.54.054 1.05.29 1.454.67.36.385.572.895.597 1.433a.47.47 0 0 1-.117.343.427.427 0 0 1-.32.144zM13.556 9.608a.425.425 0 0 1-.33-.126.468.468 0 0 1-.135-.34c.052-.566.276-1.1.64-1.523a2.047 2.047 0 0 1 1.396-.61c.241 0 .437.205.437.458a.447.447 0 0 1-.437.457c-.29.016-.564.137-.778.343a1.813 1.813 0 0 0-.385.967.444.444 0 0 1-.408.374zM15.185 3.154a2.484 2.484 0 0 1-1.454-.67 2.241 2.241 0 0 1-.64-1.463c0-.253.195-.457.436-.457s.437.204.437.457c.016.303.131.591.327.815.262.23.584.37.924.404.24 0 .436.205.436.457a.447.447 0 0 1-.436.457h-.03zM8 8.16c-1.607 0-2.91-1.364-2.91-3.048C5.09 3.43 6.394 2.065 8 2.065c1.607 0 2.91 1.364 2.91 3.047 0 .809-.307 1.584-.853 2.155A2.844 2.844 0 0 1 8 8.16zm0-5.227c-1.137 0-2.058.966-2.058 2.157 0 1.19.921 2.156 2.058 2.156 1.137 0 2.058-.966 2.058-2.156a2.21 2.21 0 0 0-.603-1.525A2.012 2.012 0 0 0 8 2.933z"/>
	</g>
</svg>
