<svg xmlns="http://www.w3.org/2000/svg" width="16" height="16" viewBox="0 0 16 16">
    <g fill="#377FEA">
        <path d="M8.865 15.476h-1.76a.436.436 0 0 1-.429-.363l-.298-1.804a5.564 5.564 0 0 1-.989-.407l-1.505 1.047a.436.436 0 0 1-.56-.05L2.08 12.654a.436.436 0 0 1-.044-.56l1.062-1.455a5.505 5.505 0 0 1-.414-.996l-1.797-.32a.436.436 0 0 1-.363-.43V7.106c0-.212.154-.393.363-.429l1.797-.298c.105-.344.244-.678.414-.996L2.051 3.884a.436.436 0 0 1 .05-.56L3.346 2.08a.436.436 0 0 1 .56-.044L5.36 3.098c.316-.168.647-.304.99-.407L6.64.887a.436.436 0 0 1 .43-.363h1.76c.212 0 .393.154.428.363l.32 1.811c.342.103.674.24.99.407l1.454-1.069a.436.436 0 0 1 .56.044l1.243 1.244c.151.149.173.385.051.56l-.989 1.52c.167.313.304.642.408.981l1.818.299c.21.035.363.216.363.429v1.76a.436.436 0 0 1-.363.429l-1.818.32a5.49 5.49 0 0 1-.408.982l1.077 1.498a.436.436 0 0 1-.044.56l-1.244 1.243a.436.436 0 0 1-.56.051l-1.512-1.061c-.316.17-.647.308-.99.414l-.32 1.811a.436.436 0 0 1-.429.356zm-1.389-.872h1.026l.305-1.724a.436.436 0 0 1 .32-.35A4.662 4.662 0 0 0 10.4 12a.436.436 0 0 1 .48 0l1.455 1.01.727-.726-1.026-1.455a.436.436 0 0 1 0-.48 4.61 4.61 0 0 0 .524-1.273.436.436 0 0 1 .35-.327l1.73-.305v-.968l-1.73-.283a.436.436 0 0 1-.357-.328 4.655 4.655 0 0 0-.524-1.272.436.436 0 0 1 0-.473l1.011-1.455-.727-.727-1.404 1.04a.436.436 0 0 1-.48 0 4.604 4.604 0 0 0-1.273-.53.436.436 0 0 1-.327-.35l-.305-1.723H7.476L7.2 3.113a.436.436 0 0 1-.327.356c-.45.11-.882.286-1.28.524a.436.436 0 0 1-.48 0L3.702 2.96l-.727.727.996 1.404a.436.436 0 0 1 0 .473 4.69 4.69 0 0 0-.538 1.287.436.436 0 0 1-.35.327l-1.701.284v1.025l1.709.306c.171.03.308.158.349.327.114.454.295.888.538 1.287a.436.436 0 0 1 0 .48L2.96 12.298l.727.727 1.455-.996a.444.444 0 0 1 .473 0c.397.24.829.42 1.28.531.168.04.297.178.327.35l.254 1.694zM8 10.785a2.785 2.785 0 1 1 0-5.57 2.785 2.785 0 0 1 0 5.57zm0-4.69A1.913 1.913 0 1 0 9.913 8 1.913 1.913 0 0 0 8 6.087v.008z"/>
    </g>
</svg>
