<svg xmlns="http://www.w3.org/2000/svg" width="16" height="16" viewBox="0 0 16 16">
	<g fill="#377FEA">
		<path d="M3.716 3.433a.436.436 0 0 1-.436-.437V.655a.436.436 0 1 1 .873 0v2.341a.436.436 0 0 1-.437.437zM12.284 3.433a.436.436 0 0 1-.437-.437V.655a.436.436 0 0 1 .873 0v2.341a.436.436 0 0 1-.436.437z"/>
		<path d="M15.04 15.782H.96a.727.727 0 0 1-.727-.727V2.182c0-.402.325-.727.727-.727h2.45a.436.436 0 0 1 0 .872H1.09V14.91h13.82V2.313h-2.32a.436.436 0 1 1 0-.873h2.45c.402 0 .727.326.727.727V15.04a.727.727 0 0 1-.727.742z"/>
		<path d="M12 2.313H4a.436.436 0 0 1 0-.858h8a.436.436 0 1 1 0 .872v-.014zM15.345 5.375H.655a.436.436 0 1 1 0-.873h14.69a.436.436 0 1 1 0 .873z"/>
		<path d="M.655 15.476a.436.436 0 0 1-.24-.8l14.69-9.789a.438.438 0 0 1 .488.728L.895 15.404a.436.436 0 0 1-.24.072z"/>
	</g>
</svg>
